<svg width="92" height="27" viewBox="0 0 92 27" fill="none" xmlns="http://www.w3.org/2000/svg">
<path d="M19.1667 2H3.83333C1.71624 2 0 3.71766 0 5.8365V21.1825C0 23.3014 1.71624 25.019 3.83333 25.019H19.1667C21.2838 25.019 23 23.3014 23 21.1825V5.8365C23 3.71766 21.2838 2 19.1667 2Z" fill="#2AA8FF"/>
<path fill-rule="evenodd" clip-rule="evenodd" d="M5.8626 9.83005C7.90469 9.8023 9.76526 9.02253 11.1804 7.75488C12.5955 9.02253 14.4561 9.8023 16.4982 9.83005C16.5724 10.2721 16.611 10.7263 16.611 11.1895C16.611 14.7392 14.3442 17.759 11.1804 18.8782C8.01656 17.759 5.74985 14.7392 5.74985 11.1895C5.74985 10.7263 5.78845 10.2721 5.8626 9.83005ZM13.6686 12.321C13.9181 12.0713 13.9181 11.6665 13.6686 11.4168C13.4191 11.1671 13.0146 11.1671 12.7651 11.4168L10.5016 13.6822L9.5957 12.7755C9.34622 12.5258 8.94167 12.5258 8.69219 12.7755C8.4427 13.0252 8.4427 13.4301 8.69219 13.6798L10.0498 15.0385C10.2993 15.2882 10.7039 15.2882 10.9533 15.0385L13.6686 12.321Z" fill="white"/>
<path d="M42.426 7.364V20H39.348V12.422L36.522 20H34.038L31.194 12.404V20H28.116V7.364H31.752L35.298 16.112L38.808 7.364H42.426ZM54.4674 14.816C54.4674 15.104 54.4494 15.404 54.4134 15.716H47.4474C47.4954 16.34 47.6934 16.82 48.0414 17.156C48.4014 17.48 48.8394 17.642 49.3554 17.642C50.1234 17.642 50.6574 17.318 50.9574 16.67H54.2334C54.0654 17.33 53.7594 17.924 53.3154 18.452C52.8834 18.98 52.3374 19.394 51.6774 19.694C51.0174 19.994 50.2794 20.144 49.4634 20.144C48.4794 20.144 47.6034 19.934 46.8354 19.514C46.0674 19.094 45.4674 18.494 45.0354 17.714C44.6034 16.934 44.3874 16.022 44.3874 14.978C44.3874 13.934 44.5974 13.022 45.0174 12.242C45.4494 11.462 46.0494 10.862 46.8174 10.442C47.5854 10.022 48.4674 9.812 49.4634 9.812C50.4354 9.812 51.2994 10.016 52.0554 10.424C52.8114 10.832 53.3994 11.414 53.8194 12.17C54.2514 12.926 54.4674 13.808 54.4674 14.816ZM51.3174 14.006C51.3174 13.478 51.1374 13.058 50.7774 12.746C50.4174 12.434 49.9674 12.278 49.4274 12.278C48.9114 12.278 48.4734 12.428 48.1134 12.728C47.7654 13.028 47.5494 13.454 47.4654 14.006H51.3174ZM55.8392 14.96C55.8392 13.928 56.0312 13.022 56.4152 12.242C56.8112 11.462 57.3452 10.862 58.0172 10.442C58.6892 10.022 59.4392 9.812 60.2672 9.812C60.9272 9.812 61.5272 9.95 62.0672 10.226C62.6192 10.502 63.0512 10.874 63.3632 11.342V6.68H66.4412V20H63.3632V18.56C63.0752 19.04 62.6612 19.424 62.1212 19.712C61.5932 20 60.9752 20.144 60.2672 20.144C59.4392 20.144 58.6892 19.934 58.0172 19.514C57.3452 19.082 56.8112 18.476 56.4152 17.696C56.0312 16.904 55.8392 15.992 55.8392 14.96ZM63.3632 14.978C63.3632 14.21 63.1472 13.604 62.7152 13.16C62.2952 12.716 61.7792 12.494 61.1672 12.494C60.5552 12.494 60.0332 12.716 59.6012 13.16C59.1812 13.592 58.9712 14.192 58.9712 14.96C58.9712 15.728 59.1812 16.34 59.6012 16.796C60.0332 17.24 60.5552 17.462 61.1672 17.462C61.7792 17.462 62.2952 17.24 62.7152 16.796C63.1472 16.352 63.3632 15.746 63.3632 14.978ZM70.576 8.912C70.036 8.912 69.592 8.756 69.244 8.444C68.908 8.12 68.74 7.724 68.74 7.256C68.74 6.776 68.908 6.38 69.244 6.068C69.592 5.744 70.036 5.582 70.576 5.582C71.104 5.582 71.536 5.744 71.872 6.068C72.22 6.38 72.394 6.776 72.394 7.256C72.394 7.724 72.22 8.12 71.872 8.444C71.536 8.756 71.104 8.912 70.576 8.912ZM72.106 9.956V20H69.028V9.956H72.106ZM79.7366 12.512H78.0806V20H75.0026V12.512H73.8866V9.956H75.0026V9.668C75.0026 8.432 75.3566 7.496 76.0646 6.86C76.7726 6.212 77.8106 5.888 79.1786 5.888C79.4066 5.888 79.5746 5.894 79.6826 5.906V8.516C79.0946 8.48 78.6806 8.564 78.4406 8.768C78.2006 8.972 78.0806 9.338 78.0806 9.866V9.956H79.7366V12.512ZM91.803 9.956L85.503 24.77H82.191L84.495 19.658L80.409 9.956H83.847L86.169 16.238L88.473 9.956H91.803Z" fill="#2AA8FF"/>
</svg>
